<mxfile host="app.diagrams.net" modified="2021-09-25T19:57:48.395Z" agent="5.0 (Windows NT 10.0; Win64; x64) AppleWebKit/537.36 (KHTML, like Gecko) Chrome/91.0.4472.114 Safari/537.36" etag="G0DO8D4E6Wk3720qZkxe" version="15.3.2" type="github">
  <diagram id="YGflYH7S-0JcMB-x-eqp" name="Page-1">
    <mxGraphModel dx="1483" dy="827" grid="1" gridSize="10" guides="1" tooltips="1" connect="1" arrows="1" fold="1" page="1" pageScale="1" pageWidth="827" pageHeight="1169" math="0" shadow="0">
      <root>
        <mxCell id="0" />
        <mxCell id="1" parent="0" />
        <mxCell id="0DDxzS_s1WOMT-R_WDR--12" value="" style="group" parent="1" vertex="1" connectable="0">
          <mxGeometry x="371" y="280" width="150" height="150" as="geometry" />
        </mxCell>
        <mxCell id="0DDxzS_s1WOMT-R_WDR--8" value="" style="rounded=1;whiteSpace=wrap;html=1;strokeColor=#E6E6E6;" parent="0DDxzS_s1WOMT-R_WDR--12" vertex="1">
          <mxGeometry width="150" height="150" as="geometry" />
        </mxCell>
        <mxCell id="0DDxzS_s1WOMT-R_WDR--2" value="{sitename}-backend&lt;br&gt;Function App" style="aspect=fixed;html=1;points=[];align=center;image;fontSize=12;image=img/lib/azure2/iot/Function_Apps.svg;" parent="0DDxzS_s1WOMT-R_WDR--12" vertex="1">
          <mxGeometry x="41" y="30" width="68" height="60" as="geometry" />
        </mxCell>
        <mxCell id="0DDxzS_s1WOMT-R_WDR--14" value="" style="group" parent="1" vertex="1" connectable="0">
          <mxGeometry x="677" y="280" width="150" height="150" as="geometry" />
        </mxCell>
        <mxCell id="0DDxzS_s1WOMT-R_WDR--13" value="" style="rounded=1;whiteSpace=wrap;html=1;strokeColor=#E6E6E6;" parent="0DDxzS_s1WOMT-R_WDR--14" vertex="1">
          <mxGeometry width="150" height="150" as="geometry" />
        </mxCell>
        <mxCell id="0DDxzS_s1WOMT-R_WDR--1" value="{sitename}&lt;br&gt;App Service" style="sketch=0;aspect=fixed;html=1;points=[];align=center;image;fontSize=12;image=img/lib/mscae/App_Services.svg;" parent="0DDxzS_s1WOMT-R_WDR--14" vertex="1">
          <mxGeometry x="50" y="30" width="50" height="50" as="geometry" />
        </mxCell>
        <mxCell id="0DDxzS_s1WOMT-R_WDR--17" value="" style="group" parent="1" vertex="1" connectable="0">
          <mxGeometry x="677" y="500" width="150" height="150" as="geometry" />
        </mxCell>
        <mxCell id="0DDxzS_s1WOMT-R_WDR--16" value="" style="rounded=1;whiteSpace=wrap;html=1;strokeColor=#E6E6E6;" parent="0DDxzS_s1WOMT-R_WDR--17" vertex="1">
          <mxGeometry width="150" height="150" as="geometry" />
        </mxCell>
        <mxCell id="0DDxzS_s1WOMT-R_WDR--4" value="{sitename}-aspfrontend&lt;br&gt;App Service plan" style="aspect=fixed;html=1;points=[];align=center;image;fontSize=12;image=img/lib/azure2/app_services/App_Service_Plans.svg;" parent="0DDxzS_s1WOMT-R_WDR--17" vertex="1">
          <mxGeometry x="43" y="30" width="64" height="64" as="geometry" />
        </mxCell>
        <mxCell id="0DDxzS_s1WOMT-R_WDR--23" value="" style="group" parent="1" vertex="1" connectable="0">
          <mxGeometry x="62" y="280" width="150" height="150" as="geometry" />
        </mxCell>
        <mxCell id="0DDxzS_s1WOMT-R_WDR--22" value="" style="rounded=1;whiteSpace=wrap;html=1;strokeColor=#E6E6E6;" parent="0DDxzS_s1WOMT-R_WDR--23" vertex="1">
          <mxGeometry width="150" height="150" as="geometry" />
        </mxCell>
        <mxCell id="0DDxzS_s1WOMT-R_WDR--7" value="kiri{randomnumber}&lt;br&gt;Storage Account" style="aspect=fixed;html=1;points=[];align=center;image;fontSize=12;image=img/lib/azure2/storage/Storage_Accounts.svg;" parent="0DDxzS_s1WOMT-R_WDR--23" vertex="1">
          <mxGeometry x="42.5" y="30" width="65" height="52" as="geometry" />
        </mxCell>
        <mxCell id="0DDxzS_s1WOMT-R_WDR--25" value="" style="group" parent="1" vertex="1" connectable="0">
          <mxGeometry x="62" y="60" width="150" height="150" as="geometry" />
        </mxCell>
        <mxCell id="0DDxzS_s1WOMT-R_WDR--24" value="" style="rounded=1;whiteSpace=wrap;html=1;strokeColor=#E6E6E6;" parent="0DDxzS_s1WOMT-R_WDR--25" vertex="1">
          <mxGeometry width="150" height="150" as="geometry" />
        </mxCell>
        <mxCell id="0DDxzS_s1WOMT-R_WDR--6" value="{sitename}-db&lt;br&gt;Azure Cosmos &lt;br&gt;DB Account" style="aspect=fixed;html=1;points=[];align=center;image;fontSize=12;image=img/lib/azure2/databases/Azure_Cosmos_DB.svg;" parent="0DDxzS_s1WOMT-R_WDR--25" vertex="1">
          <mxGeometry x="43" y="20" width="64" height="64" as="geometry" />
        </mxCell>
        <mxCell id="0DDxzS_s1WOMT-R_WDR--26" style="edgeStyle=orthogonalEdgeStyle;rounded=0;orthogonalLoop=1;jettySize=auto;html=1;exitX=0;exitY=0.5;exitDx=0;exitDy=0;entryX=1;entryY=0.5;entryDx=0;entryDy=0;" parent="1" source="0DDxzS_s1WOMT-R_WDR--8" target="0DDxzS_s1WOMT-R_WDR--22" edge="1">
          <mxGeometry relative="1" as="geometry" />
        </mxCell>
        <mxCell id="cDFif1h-3yhL70TAoYYn-2" value="&lt;p style=&quot;line-height: 140%&quot;&gt;&amp;nbsp; Function&amp;nbsp;&amp;nbsp;&lt;br&gt;&amp;nbsp; Storage&amp;nbsp;&amp;nbsp;&lt;/p&gt;" style="edgeLabel;html=1;align=center;verticalAlign=middle;resizable=0;points=[];" vertex="1" connectable="0" parent="0DDxzS_s1WOMT-R_WDR--26">
          <mxGeometry x="0.2297" relative="1" as="geometry">
            <mxPoint x="22" y="1" as="offset" />
          </mxGeometry>
        </mxCell>
        <mxCell id="0DDxzS_s1WOMT-R_WDR--27" value="" style="group" parent="1" vertex="1" connectable="0">
          <mxGeometry x="62" y="500" width="150" height="150" as="geometry" />
        </mxCell>
        <mxCell id="0DDxzS_s1WOMT-R_WDR--19" value="" style="rounded=1;whiteSpace=wrap;html=1;strokeColor=#E6E6E6;container=0;" parent="0DDxzS_s1WOMT-R_WDR--27" vertex="1">
          <mxGeometry width="150" height="150" as="geometry" />
        </mxCell>
        <mxCell id="0DDxzS_s1WOMT-R_WDR--5" value="{sitename}-keyvault&lt;br&gt;Key vault" style="aspect=fixed;html=1;points=[];align=center;image;fontSize=12;image=img/lib/azure2/security/Key_Vaults.svg;container=0;" parent="0DDxzS_s1WOMT-R_WDR--27" vertex="1">
          <mxGeometry x="41" y="20" width="68" height="68" as="geometry" />
        </mxCell>
        <mxCell id="0DDxzS_s1WOMT-R_WDR--28" value="" style="group" parent="1" vertex="1" connectable="0">
          <mxGeometry x="372" y="500" width="150" height="150" as="geometry" />
        </mxCell>
        <mxCell id="0DDxzS_s1WOMT-R_WDR--15" value="" style="rounded=1;whiteSpace=wrap;html=1;strokeColor=#E6E6E6;container=0;" parent="0DDxzS_s1WOMT-R_WDR--28" vertex="1">
          <mxGeometry width="150" height="150" as="geometry" />
        </mxCell>
        <mxCell id="0DDxzS_s1WOMT-R_WDR--3" value="{sitename}-aspbackend&lt;br&gt;App Service plan" style="aspect=fixed;html=1;points=[];align=center;image;fontSize=12;image=img/lib/azure2/app_services/App_Service_Plans.svg;container=0;" parent="0DDxzS_s1WOMT-R_WDR--28" vertex="1">
          <mxGeometry x="48" y="27" width="64" height="64" as="geometry" />
        </mxCell>
        <mxCell id="0DDxzS_s1WOMT-R_WDR--29" value="&lt;p style=&quot;line-height: 140%&quot;&gt;&amp;nbsp; Database Access&amp;nbsp;&amp;nbsp;&lt;/p&gt;" style="rounded=0;orthogonalLoop=1;jettySize=auto;html=1;exitX=0;exitY=0.25;exitDx=0;exitDy=0;entryX=1;entryY=1;entryDx=0;entryDy=0;" parent="1" source="0DDxzS_s1WOMT-R_WDR--8" target="0DDxzS_s1WOMT-R_WDR--24" edge="1">
          <mxGeometry relative="1" as="geometry">
            <mxPoint x="381" y="365" as="sourcePoint" />
            <mxPoint x="273" y="365" as="targetPoint" />
          </mxGeometry>
        </mxCell>
        <mxCell id="0DDxzS_s1WOMT-R_WDR--30" style="rounded=0;orthogonalLoop=1;jettySize=auto;html=1;exitX=0;exitY=0.75;exitDx=0;exitDy=0;entryX=1;entryY=0;entryDx=0;entryDy=0;" parent="1" source="0DDxzS_s1WOMT-R_WDR--8" target="0DDxzS_s1WOMT-R_WDR--19" edge="1">
          <mxGeometry relative="1" as="geometry">
            <mxPoint x="381" y="365" as="sourcePoint" />
            <mxPoint x="273" y="165" as="targetPoint" />
          </mxGeometry>
        </mxCell>
        <mxCell id="cDFif1h-3yhL70TAoYYn-6" value="&lt;p style=&quot;line-height: 140%&quot;&gt;&amp;nbsp; Store &amp;amp; Retrieve Secrets&lt;/p&gt;" style="edgeLabel;html=1;align=center;verticalAlign=middle;resizable=0;points=[];" vertex="1" connectable="0" parent="0DDxzS_s1WOMT-R_WDR--30">
          <mxGeometry x="-0.0936" y="-2" relative="1" as="geometry">
            <mxPoint y="6" as="offset" />
          </mxGeometry>
        </mxCell>
        <mxCell id="cDFif1h-3yhL70TAoYYn-7" style="edgeStyle=none;rounded=0;orthogonalLoop=1;jettySize=auto;html=1;exitX=0;exitY=0.5;exitDx=0;exitDy=0;entryX=1;entryY=0.5;entryDx=0;entryDy=0;" edge="1" parent="1" source="0DDxzS_s1WOMT-R_WDR--13" target="0DDxzS_s1WOMT-R_WDR--8">
          <mxGeometry relative="1" as="geometry" />
        </mxCell>
        <mxCell id="cDFif1h-3yhL70TAoYYn-21" value="Rest &amp;amp; GraphQL&lt;br&gt;Calls" style="edgeLabel;html=1;align=center;verticalAlign=middle;resizable=0;points=[];" vertex="1" connectable="0" parent="cDFif1h-3yhL70TAoYYn-7">
          <mxGeometry x="-0.0788" y="1" relative="1" as="geometry">
            <mxPoint as="offset" />
          </mxGeometry>
        </mxCell>
        <mxCell id="cDFif1h-3yhL70TAoYYn-8" style="edgeStyle=none;rounded=0;orthogonalLoop=1;jettySize=auto;html=1;exitX=0.5;exitY=1;exitDx=0;exitDy=0;entryX=0.5;entryY=0;entryDx=0;entryDy=0;" edge="1" parent="1" source="0DDxzS_s1WOMT-R_WDR--8" target="0DDxzS_s1WOMT-R_WDR--15">
          <mxGeometry relative="1" as="geometry" />
        </mxCell>
        <mxCell id="cDFif1h-3yhL70TAoYYn-9" style="edgeStyle=none;rounded=0;orthogonalLoop=1;jettySize=auto;html=1;exitX=0.5;exitY=1;exitDx=0;exitDy=0;entryX=0.5;entryY=0;entryDx=0;entryDy=0;" edge="1" parent="1" source="0DDxzS_s1WOMT-R_WDR--13" target="0DDxzS_s1WOMT-R_WDR--16">
          <mxGeometry relative="1" as="geometry" />
        </mxCell>
      </root>
    </mxGraphModel>
  </diagram>
</mxfile>
